<?xml version="1.0" encoding="UTF-8" standalone="no"?>
<svg
   xmlns:dc="http://purl.org/dc/elements/1.1/"
   xmlns:cc="http://creativecommons.org/ns#"
   xmlns:rdf="http://www.w3.org/1999/02/22-rdf-syntax-ns#"
   xmlns:svg="http://www.w3.org/2000/svg"
   xmlns="http://www.w3.org/2000/svg"
   width="256"
   height="256"
   viewBox="0 0 67.73333 67.73333"
   version="1.1"
   id="svg8">
  <defs
     id="defs2" />
  <metadata
     id="metadata5">
    <rdf:RDF>
      <cc:Work
         rdf:about="">
        <dc:format>image/svg+xml</dc:format>
        <dc:type
           rdf:resource="http://purl.org/dc/dcmitype/StillImage" />
        <dc:title></dc:title>
      </cc:Work>
    </rdf:RDF>
  </metadata>
  <path
     id="path841"
     transform="scale(0.26458332)"
     d="M 128 0 A 127.99982 127.99982 0 0 0 0 128 A 127.99982 127.99982 0 0 0 128 256 A 127.99982 127.99982 0 0 0 256 128 A 127.99982 127.99982 0 0 0 128 0 z M 177.26172 44.433594 C 178.88912 44.399578 180.07881 44.776964 180.79492 45.568359 C 182.89456 47.888422 183.94565 54.297338 183.54688 62.347656 L 183.17578 69.84375 L 185.26758 72.443359 C 193.34785 82.476229 195.69816 96.650994 192.38867 115.38086 C 192.31346 115.80643 194.34956 116.10212 197.94922 116.1875 C 206.5373 116.39122 222.13031 117.61132 228.64258 118.58984 C 234.97241 119.54096 237.10145 120.71091 235.4707 122.33984 C 234.66371 123.14602 233.8272 123.14859 228.86719 122.36914 C 216.3381 120.39857 190.69336 119.26762 190.69336 120.68555 C 190.69336 120.97733 195.15227 121.55978 200.60156 121.97852 C 217.11292 123.24727 234.48427 126.63747 235.29492 128.75 C 236.14561 130.96684 234.43107 131.1034 226.84766 129.42578 C 217.61831 127.38404 207.12936 125.98963 196.875 125.44141 L 189.02539 125.02344 L 187.36523 127.85742 C 184.98765 131.91448 178.7441 137.43912 173.95117 139.72656 C 169.74005 141.73636 159.03617 144.75673 156.06445 144.77344 C 153.01923 144.79234 152.76483 145.52178 154.75977 148.49219 C 155.77701 150.00683 156.93587 152.27142 157.33594 153.52539 C 157.76257 154.86263 158.22088 162.81498 158.44531 172.75586 L 158.82812 189.70312 L 162.55859 193.01367 C 166.6225 196.61783 166.8679 197.88526 163.73438 199.0918 C 161.48852 199.95652 156.48745 199.30767 153.45312 197.75977 C 150.813 196.41286 147.95847 193.32054 147.44531 191.25 C 147.25841 190.49591 146.86926 183.77389 146.58008 176.3125 L 146.05469 162.74609 L 146.13281 178.20508 L 146.20898 193.66406 L 148.25977 196.61719 C 150.43018 199.74267 150.79283 201.44939 149.55273 202.68945 C 147.64784 204.59437 141.74765 202.64242 137.61719 198.74414 C 135.31459 196.57084 134.68503 195.08651 133.59961 189.24805 C 132.96726 185.84666 132.7635 185.36779 132.71094 187.16602 C 132.5 194.382 129.57678 199.54263 124.23828 202.12695 C 118.55538 204.878 113.73165 202.91484 116.82031 199.10742 C 119.6526 195.61605 119.87133 194.28727 120.30859 177.89062 C 120.60291 166.85459 120.53153 162.40036 120.07031 163.0625 C 119.66232 163.64825 119.40807 169.20284 119.40234 177.63867 C 119.39289 190.76781 119.33969 191.34889 117.95508 193.41406 C 115.71051 196.76185 110.44815 199.29988 105.70117 199.32422 C 103.5178 199.33556 101.46232 199.0161 101.04688 198.60156 C 99.784437 197.34173 100.94156 194.88897 103.70117 192.97656 C 107.61718 190.26279 108.13153 188.46674 107.63672 179.21094 L 107.2168 171.38867 L 99.580078 171.14453 C 92.830344 170.92834 91.577541 170.70814 88.789062 169.24414 C 84.303704 166.88923 81.436598 163.59936 78.078125 156.95117 C 75.304787 151.46126 74.390831 150.36207 68.378906 145.29297 C 64.536865 142.05342 66.512734 139.35973 72.373047 139.8457 C 76.978617 140.22766 79.613971 142.10475 85.0625 148.87891 C 88.02003 152.55597 90.62558 155.13865 92.070312 155.82422 C 95.11301 157.26804 101.29485 157.64822 105.10742 156.62695 C 107.9296 155.87097 108.261 155.5713 109.27539 152.88281 C 109.88173 151.2758 111.14204 148.96242 112.07422 147.74023 L 113.76758 145.51758 L 109.16602 144.76367 C 96.108681 142.62435 84.435731 136.33196 79.167969 128.59375 L 76.800781 125.11719 L 68.845703 125.45117 C 59.432574 125.84636 49.616882 127.19501 40.625 129.33203 C 31.748224 131.44169 29.805245 131.3321 30.787109 128.77344 C 31.51604 126.87388 50.502448 123.10279 65.285156 121.92188 C 70.404024 121.51297 74.591797 120.90436 74.591797 120.56836 C 74.591797 119.3396 43.35196 121.03696 35.195312 122.70898 C 32.637234 123.23336 31.909807 123.17538 31.117188 122.38281 C 30.261642 121.52717 30.258301 121.31203 31.09375 120.47656 C 32.752048 118.81826 44.102837 117.44209 63.076172 116.60156 C 68.368558 116.36723 72.699506 116.14669 72.699219 116.11328 C 72.698935 116.07927 72.24752 113.92511 71.695312 111.32227 C 71.06604 108.35621 70.6856 103.40931 70.677734 98.070312 C 70.662616 87.676649 71.815409 83.402267 76.546875 76.328125 L 79.732422 71.566406 L 79.048828 65.947266 C 78.408485 60.680796 78.817609 53.991011 80 50.365234 C 81.812748 44.806456 82.596161 44.30141 88.072266 45.160156 C 92.727185 45.890134 98.232655 48.172248 104.11914 51.8125 L 108.7207 54.658203 L 114.21484 53.492188 C 120.94135 52.063715 142.9937 51.834757 149.78516 53.123047 L 153.99023 53.919922 L 160.51172 50.486328 C 167.97909 46.553087 173.68145 44.505594 177.26172 44.433594 z M 162.00391 93.335938 L 153.16016 93.632812 C 141.5254 94.021424 125.07527 94.025911 113.71289 93.646484 C 105.9915 93.389476 104.05414 93.520481 101.30078 94.478516 C 96.939388 95.996298 92.731243 99.823227 90.560547 104.24414 C 88.994216 107.43421 88.790762 108.53994 88.800781 113.84375 C 88.810608 119.05961 89.039729 120.32885 90.568359 123.62305 C 94.492148 132.07895 102.64214 136.93458 115.4043 138.41797 L 115.4043 138.41602 C 121.66747 139.14395 145.95657 139.17529 152.1543 138.46289 C 162.4928 137.27434 168.82873 134.10882 172.85938 128.11914 C 175.69527 123.90493 176.47694 120.78959 176.44531 113.8418 C 176.40204 104.31867 173.43539 98.95882 166.25 95.423828 L 162.00391 93.335938 z M 158.56641 103.74805 C 165.87678 103.74805 168.90588 116.97668 162.88086 122.58984 C 161.12083 124.22955 157.53289 124.38323 155.42969 122.91016 C 153.56894 121.60686 151.60406 117.33215 151.58594 114.54883 C 151.55268 109.43622 155.22881 103.75 158.56641 103.75 L 158.56641 103.74805 z M 108.38672 103.82227 C 109.64257 103.83738 110.79997 104.4953 112.13477 105.83008 C 116.47294 110.1683 116.61777 117.97794 112.43945 122.15625 C 110.33264 124.26307 106.64105 124.57128 104.47266 122.82227 C 99.534284 118.83898 99.937926 108.11445 105.14453 104.93945 C 106.37337 104.19012 107.40995 103.81108 108.38672 103.82227 z M 110.93555 203.14062 L 113.38477 203.14062 L 113.38477 210.4707 C 114.14866 209.83702 114.93794 209.34225 115.75391 208.98633 C 116.56988 208.63043 117.40821 208.45312 118.26758 208.45312 C 119.83876 208.45313 121.03669 208.92686 121.86133 209.87305 C 122.68598 210.81923 123.09766 212.18143 123.09766 213.96094 L 123.09766 223.40039 L 120.65039 223.40039 L 120.65039 215.11914 C 120.65039 214.45074 120.61133 213.82574 120.5332 213.24414 C 120.45505 212.65386 120.31184 212.19511 120.10352 211.86523 C 119.8865 211.50065 119.57399 211.23023 119.16602 211.05664 C 118.75802 210.87435 118.22722 210.7832 117.57617 210.7832 C 116.90777 210.7832 116.20964 210.94946 115.48047 211.2793 C 114.7513 211.60916 114.05317 212.02886 113.38477 212.54102 L 113.38477 223.40039 L 110.93555 223.40039 L 110.93555 203.14062 z M 192.52539 203.14062 L 194.97266 203.14062 L 194.97266 223.40039 L 192.52539 223.40039 L 192.52539 221.87695 C 191.82227 222.48459 191.08811 222.95834 190.32422 223.29688 C 189.56033 223.6354 188.73199 223.80469 187.83789 223.80469 C 186.10178 223.80469 184.72157 223.13564 183.69727 221.79883 C 182.68163 220.46202 182.17383 218.61003 182.17383 216.24023 C 182.17383 215.0076 182.34613 213.90886 182.69336 212.94531 C 183.04926 211.98177 183.52799 211.16145 184.12695 210.48438 C 184.71722 209.82464 185.40235 209.32183 186.18359 208.97461 C 186.97353 208.6274 187.78885 208.45312 188.63086 208.45312 C 189.39475 208.45312 190.07184 208.53623 190.66211 208.70117 C 191.25239 208.85742 191.87435 209.10483 192.52539 209.44336 L 192.52539 203.14062 z M 100.4668 204.67773 L 102.91602 204.67773 L 102.91602 208.85742 L 107.9668 208.85742 L 107.9668 210.91406 L 102.91602 210.91406 L 102.91602 217.54102 C 102.91602 218.3049 102.93203 218.90386 102.9668 219.33789 C 103.00149 219.76324 103.1237 220.16384 103.33203 220.53711 C 103.523 220.88433 103.7834 221.13975 104.11328 221.30469 C 104.45182 221.46093 104.96463 221.53906 105.65039 221.53906 C 106.0497 221.53906 106.46636 221.482 106.90039 221.36914 C 107.33442 221.24759 107.64691 221.14844 107.83789 221.07031 L 107.9668 221.07031 L 107.9668 223.27148 C 107.50673 223.393 107.00391 223.49219 106.45703 223.57031 C 105.91884 223.64847 105.43707 223.6875 105.01172 223.6875 C 103.52735 223.6875 102.39952 223.28886 101.62695 222.49023 C 100.85438 221.69162 100.4668 220.41059 100.4668 218.64844 L 100.4668 210.91406 L 98.814453 210.91406 L 98.814453 208.85742 L 100.4668 208.85742 L 100.4668 204.67773 z M 65.310547 208.45312 C 67.272356 208.45312 68.782773 209.02604 69.841797 210.17188 C 70.909506 211.31771 71.443359 212.94531 71.443359 215.05469 L 71.443359 216.38281 L 60.728516 216.38281 C 60.728516 217.27691 60.861757 218.05816 61.130859 218.72656 C 61.399954 219.38629 61.769533 219.92817 62.238281 220.35352 C 62.68967 220.77018 63.223524 221.08269 63.839844 221.29102 C 64.464845 221.49934 65.149956 221.60352 65.896484 221.60352 C 66.886067 221.60352 67.880642 221.4082 68.878906 221.01758 C 69.885848 220.61827 70.601996 220.22765 71.027344 219.8457 L 71.158203 219.8457 L 71.158203 222.51562 C 70.333548 222.86284 69.490233 223.1543 68.630859 223.38867 C 67.771485 223.62308 66.87001 223.74025 65.923828 223.74023 C 63.510637 223.74023 61.625651 223.08919 60.271484 221.78711 C 58.917317 220.47634 58.240234 218.6174 58.240234 216.21289 C 58.240234 213.83442 58.888241 211.9464 60.181641 210.54883 C 61.483726 209.15126 63.192492 208.45312 65.310547 208.45312 z M 81.197266 208.45312 C 83.159071 208.45312 84.669492 209.02604 85.728516 210.17188 C 86.796225 211.31771 87.330078 212.94531 87.330078 215.05469 L 87.330078 216.38281 L 76.613281 216.38281 C 76.613281 217.27691 76.748476 218.05816 77.017578 218.72656 C 77.286673 219.38629 77.654299 219.92817 78.123047 220.35352 C 78.574436 220.77018 79.108289 221.08269 79.724609 221.29102 C 80.349607 221.49934 81.036675 221.60352 81.783203 221.60352 C 82.772786 221.60352 83.765408 221.4082 84.763672 221.01758 C 85.770614 220.61827 86.486761 220.22765 86.912109 219.8457 L 87.042969 219.8457 L 87.042969 222.51562 C 86.218314 222.86284 85.376952 223.1543 84.517578 223.38867 C 83.6582 223.62308 82.754776 223.74025 81.808594 223.74023 C 79.395399 223.74023 77.51237 223.08919 76.158203 221.78711 C 74.804036 220.47634 74.126953 218.6174 74.126953 216.21289 C 74.126953 213.83442 74.773003 211.9464 76.066406 210.54883 C 77.368491 209.15126 79.079211 208.45312 81.197266 208.45312 z M 133.85352 208.45312 C 135.81532 208.45312 137.32574 209.02604 138.38477 210.17188 C 139.45247 211.31771 139.98633 212.94531 139.98633 215.05469 L 139.98633 216.38281 L 129.26953 216.38281 C 129.26953 217.27691 129.40473 218.05816 129.67383 218.72656 C 129.94293 219.38629 130.31054 219.92817 130.7793 220.35352 C 131.23069 220.77018 131.76454 221.08269 132.38086 221.29102 C 133.00586 221.49934 133.69292 221.60352 134.43945 221.60352 C 135.42903 221.60352 136.42166 221.4082 137.41992 221.01758 C 138.42687 220.61827 139.14302 220.22765 139.56836 219.8457 L 139.69922 219.8457 L 139.69922 222.51562 C 138.87457 222.86284 138.0332 223.1543 137.17383 223.38867 C 136.31445 223.62308 135.41102 223.74025 134.46484 223.74023 C 132.05164 223.74023 130.16861 223.08919 128.81445 221.78711 C 127.46028 220.47634 126.7832 218.6174 126.7832 216.21289 C 126.7832 213.83442 127.42926 211.9464 128.72266 210.54883 C 130.02474 209.15126 131.73546 208.45312 133.85352 208.45312 z M 172.66797 208.45312 C 174.7079 208.45312 176.33551 209.14323 177.55078 210.52344 C 178.76606 211.89497 179.37305 213.76496 179.37305 216.13477 C 179.37305 218.50455 178.76606 220.37652 177.55078 221.74805 C 176.33551 223.11958 174.7079 223.80469 172.66797 223.80469 C 170.61068 223.80469 168.97505 223.11958 167.75977 221.74805 C 166.55317 220.37652 165.94922 218.50455 165.94922 216.13477 C 165.94922 213.76496 166.55317 211.89497 167.75977 210.52344 C 168.97505 209.14323 170.61068 208.45312 172.66797 208.45312 z M 205.83203 208.45312 C 207.79384 208.45312 209.30426 209.02604 210.36328 210.17188 C 211.43099 211.31771 211.96484 212.94531 211.96484 215.05469 L 211.96484 216.38281 L 201.24805 216.38281 C 201.24805 217.27691 201.38324 218.05816 201.65234 218.72656 C 201.92143 219.38629 202.29102 219.92817 202.75977 220.35352 C 203.21116 220.77018 203.74501 221.08269 204.36133 221.29102 C 204.98633 221.49934 205.67144 221.60352 206.41797 221.60352 C 207.40755 221.60352 208.40213 221.4082 209.40039 221.01758 C 210.40734 220.61827 211.12349 220.22765 211.54883 219.8457 L 211.67773 219.8457 L 211.67773 222.51562 C 210.85307 222.86284 210.01171 223.1543 209.15234 223.38867 C 208.29297 223.62308 207.38954 223.74025 206.44336 223.74023 C 204.03017 223.74023 202.14714 223.08919 200.79297 221.78711 C 199.4388 220.47634 198.76172 218.6174 198.76172 216.21289 C 198.76172 213.83442 199.40777 211.9464 200.70117 210.54883 C 202.00326 209.15126 203.71398 208.45312 205.83203 208.45312 z M 50.324219 208.50586 C 51.192274 208.50586 52.069663 208.61306 52.955078 208.83008 C 53.849175 209.03841 54.591362 209.29577 55.181641 209.59961 L 55.181641 212.2168 L 55.050781 212.2168 C 54.42578 211.75673 53.665581 211.36913 52.771484 211.05664 C 51.877384 210.73548 51.001952 210.57617 50.142578 210.57617 C 49.248478 210.57617 48.493273 210.74848 47.876953 211.0957 C 47.260641 211.43425 46.951172 211.94206 46.951172 212.61914 C 46.951172 213.2181 47.138453 213.67081 47.511719 213.97461 C 47.876303 214.27843 48.46723 214.52582 49.283203 214.7168 C 49.734592 214.82096 50.237416 214.92513 50.792969 215.0293 C 51.357207 215.13346 51.825953 215.22764 52.199219 215.31445 C 53.336369 215.57487 54.213758 216.02257 54.830078 216.65625 C 55.446406 217.29861 55.753906 218.14995 55.753906 219.20898 C 55.753906 220.5371 55.202041 221.62587 54.099609 222.47656 C 53.005859 223.32726 51.508464 223.75195 49.607422 223.75195 C 48.531035 223.75195 47.54145 223.62675 46.638672 223.375 C 45.744572 223.11459 44.994357 222.8331 44.386719 222.5293 L 44.386719 219.78125 L 44.517578 219.78125 C 45.290144 220.36285 46.149521 220.8266 47.095703 221.17383 C 48.041881 221.51235 48.948351 221.68164 49.816406 221.68164 C 50.892793 221.68164 51.734158 221.50933 52.341797 221.16211 C 52.949428 220.81489 53.253906 220.26801 53.253906 219.52148 C 53.253906 218.94856 53.089643 218.51389 52.759766 218.21875 C 52.429904 217.92361 51.794922 217.67122 50.857422 217.46289 C 50.5102 217.38477 50.054469 217.29362 49.490234 217.18945 C 48.934678 217.08529 48.426867 216.97307 47.966797 216.85156 C 46.690756 216.51302 45.784287 216.01823 45.246094 215.36719 C 44.716571 214.70747 44.451172 213.90018 44.451172 212.94531 C 44.451172 212.34635 44.573345 211.78147 44.816406 211.25195 C 45.068145 210.72244 45.445752 210.25065 45.949219 209.83398 C 46.43533 209.426 47.0523 209.10351 47.798828 208.86914 C 48.554034 208.62608 49.3954 208.50586 50.324219 208.50586 z M 159.16602 208.51758 C 159.99935 208.51758 160.81467 208.63477 161.61328 208.86914 C 162.42058 209.10352 163.15777 209.38998 163.82617 209.72852 L 163.82617 212.45117 L 163.69727 212.45117 C 162.95074 211.86958 162.17752 211.42187 161.37891 211.10938 C 160.58898 210.79687 159.81576 210.64062 159.06055 210.64062 C 157.67166 210.64062 156.57487 211.10937 155.76758 212.04688 C 154.96897 212.97569 154.56836 214.34288 154.56836 216.14844 C 154.56836 217.90191 154.95898 219.25109 155.74023 220.19727 C 156.53016 221.13477 157.63693 221.60352 159.06055 221.60352 C 159.55534 221.60352 160.06011 221.53841 160.57227 221.4082 C 161.08441 221.27801 161.54319 221.10872 161.95117 220.90039 C 162.30708 220.71809 162.64259 220.52776 162.95508 220.32812 C 163.26758 220.1198 163.51498 219.94251 163.69727 219.79492 L 163.82617 219.79492 L 163.82617 222.49023 C 163.0102 222.88086 162.23393 223.18337 161.49609 223.40039 C 160.76692 223.61741 159.99067 223.72656 159.16602 223.72656 C 158.11567 223.72656 157.15213 223.57528 156.27539 223.27148 C 155.39866 222.95897 154.64648 222.49024 154.02148 221.86523 C 153.3878 221.24023 152.89801 220.449 152.55078 219.49414 C 152.20357 218.53928 152.0293 217.42448 152.0293 216.14844 C 152.0293 213.76997 152.68034 211.903 153.98242 210.54883 C 155.29319 209.19466 157.02192 208.51758 159.16602 208.51758 z M 65.181641 210.4707 C 63.870878 210.4707 62.82422 210.85829 62.042969 211.63086 C 61.270399 212.40343 60.832679 213.36198 60.728516 214.50781 L 69.060547 214.50781 C 69.051979 213.22309 68.726459 212.22851 68.083984 211.52539 C 67.450301 210.82227 66.483722 210.4707 65.181641 210.4707 z M 81.066406 210.4707 C 79.755643 210.4707 78.708985 210.85829 77.927734 211.63086 C 77.155165 212.40343 76.717445 213.36198 76.613281 214.50781 L 84.947266 214.50781 C 84.938697 213.22309 84.613174 212.22851 83.970703 211.52539 C 83.33702 210.82227 82.368491 210.4707 81.066406 210.4707 z M 133.72266 210.4707 C 132.41189 210.4707 131.36524 210.85829 130.58398 211.63086 C 129.81141 212.40343 129.3737 213.36198 129.26953 214.50781 L 137.60352 214.50781 C 137.59495 213.22309 137.26942 212.22851 136.62695 211.52539 C 135.99326 210.82227 135.02473 210.4707 133.72266 210.4707 z M 205.70117 210.4707 C 204.39041 210.4707 203.34569 210.85829 202.56445 211.63086 C 201.79187 212.40343 201.35221 213.36198 201.24805 214.50781 L 209.58203 214.50781 C 209.57347 213.22309 209.24795 212.22851 208.60547 211.52539 C 207.97179 210.82227 207.00326 210.4707 205.70117 210.4707 z M 172.66797 210.5625 C 171.33985 210.5625 170.30621 211.02322 169.56836 211.94336 C 168.83918 212.85482 168.47461 214.25108 168.47461 216.13477 C 168.47461 217.95767 168.84419 219.34288 169.58203 220.28906 C 170.31988 221.22656 171.34853 221.69531 172.66797 221.69531 C 173.97006 221.69531 174.99066 221.23156 175.72852 220.30273 C 176.47503 219.36525 176.84766 217.97504 176.84766 216.13477 C 176.84766 214.25108 176.47808 212.85482 175.74023 211.94336 C 175.00239 211.02322 173.97874 210.5625 172.66797 210.5625 z M 189.04883 210.69336 C 187.6773 210.69336 186.60958 211.17014 185.8457 212.125 C 185.08182 213.07986 184.69922 214.43403 184.69922 216.1875 C 184.69922 217.91493 184.9937 219.23004 185.58398 220.13281 C 186.17426 221.02691 187.12175 221.47461 188.42383 221.47461 C 189.11828 221.47461 189.82139 221.32138 190.5332 221.01758 C 191.245 220.70508 191.90907 220.30643 192.52539 219.82031 L 192.52539 211.47461 C 191.86567 211.17949 191.27474 210.97418 190.75391 210.86133 C 190.23307 210.74847 189.66515 210.69336 189.04883 210.69336 z "
     style="fill:#61969f;fill-opacity:1;stroke-width:0.63098502" />
</svg>
