<?xml version="1.0" encoding="UTF-8" standalone="no"?>
<svg
   xmlns:dc="http://purl.org/dc/elements/1.1/"
   xmlns:cc="http://creativecommons.org/ns#"
   xmlns:rdf="http://www.w3.org/1999/02/22-rdf-syntax-ns#"
   xmlns:svg="http://www.w3.org/2000/svg"
   xmlns="http://www.w3.org/2000/svg"
   xmlns:sodipodi="http://sodipodi.sourceforge.net/DTD/sodipodi-0.dtd"
   xmlns:inkscape="http://www.inkscape.org/namespaces/inkscape"
   id="svg8"
   version="1.1"
   viewBox="0 0 19.792383 27.097406"
   height="27.097406mm"
   width="19.792383mm"
   sodipodi:docname="robot.svg"
   inkscape:version="0.92.3 (2405546, 2018-03-11)">
  <sodipodi:namedview
     pagecolor="#ffffff"
     bordercolor="#666666"
     borderopacity="1"
     objecttolerance="10"
     gridtolerance="10"
     guidetolerance="10"
     inkscape:pageopacity="0"
     inkscape:pageshadow="2"
     inkscape:window-width="1366"
     inkscape:window-height="705"
     id="namedview14"
     showgrid="false"
     inkscape:zoom="4.6086822"
     inkscape:cx="37.062427"
     inkscape:cy="46.834387"
     inkscape:window-x="-8"
     inkscape:window-y="-8"
     inkscape:window-maximized="1"
     inkscape:current-layer="svg8" />
  <defs
     id="defs2" />
  <metadata
     id="metadata5">
    <rdf:RDF>
      <cc:Work
         rdf:about="">
        <dc:format>image/svg+xml</dc:format>
        <dc:type
           rdf:resource="http://purl.org/dc/dcmitype/StillImage" />
        <dc:title />
      </cc:Work>
    </rdf:RDF>
  </metadata>
  <g
     transform="translate(-129.32524,-36.568956)"
     id="layer1">
    <path
       id="path994"
       d="m 137.89262,63.326116 c -0.72521,-0.499832 -1.00888,-0.892198 -1.28648,-1.779408 -0.30148,-0.963512 0.14881,-2.04075 1.08395,-2.593147 0.4343,-0.256551 0.63192,-0.539473 0.63192,-0.904696 0,-0.755618 0.371,-1.350695 0.84209,-1.350695 0.58482,0 0.72881,0.34117 0.89376,2.117833 0.0811,0.873606 0.21064,1.9455 0.28783,2.381987 0.19982,1.129783 -0.0299,1.79739 -0.74553,2.167501 -0.79388,0.410531 -1.06379,0.404307 -1.70754,-0.03937 z m 0.85296,-1.956215 c 0,-0.109607 -0.0953,-0.258185 -0.21178,-0.330174 -0.11648,-0.07199 -0.21179,0.01769 -0.21179,0.199285 0,0.181595 0.0953,0.330174 0.21179,0.330174 0.11648,0 0.21178,-0.08968 0.21178,-0.199285 z"
       style="fill:#393939;stroke-width:0.21178328;stroke:#c7c7c7;stroke-opacity:1" />
    <path
       id="path912"
       d="m 143.71301,48.022808 c -0.46215,-0.556851 0.002,-1.099647 1.18705,-1.388182 1.69006,-0.411493 1.84262,-1.988034 0.33799,-3.492661 -0.82882,-0.828823 -1.03479,-1.700905 -0.52267,-2.213023 0.39948,-0.399478 0.73999,-0.351363 1.36799,0.1933 0.63153,0.547728 1.01434,0.499688 1.1341,-0.142323 0.18959,-1.016412 0.89071,-1.320046 1.54267,-0.668087 0.55234,0.552338 0.45312,1.773428 -0.21801,2.68309 -0.46865,0.635225 -0.58692,1.072545 -0.58692,2.170204 0,1.689808 -0.45316,2.626491 -1.43652,2.969292 -1.08502,0.378241 -2.44401,0.32418 -2.80568,-0.11161 z"
       style="fill:#3c3c3c;stroke-width:0.23477042;stroke:#c7c7c7;stroke-opacity:1" />
    <path
       id="path942"
       d="m 136.89779,57.444191 c -1.93623,-1.216678 -2.39672,-1.686019 -2.59114,-2.640972 -0.0932,-0.457854 -0.56624,-2.082617 -1.05116,-3.610586 -1.24868,-3.934573 -1.35728,-4.66894 -0.78415,-5.302248 0.59336,-0.655653 0.95426,-0.649826 3.02303,0.04881 1.34825,0.455312 1.84186,0.512985 2.49877,0.291959 2.13487,-0.718301 6.82979,-1.695902 7.42596,-1.546272 0.82214,0.206344 1.12043,1.228631 0.73619,2.523016 -0.83763,2.821664 -3.33756,9.472091 -3.71908,9.893667 -0.68217,0.753785 -1.27455,0.989954 -2.77428,1.10604 -1.20248,0.09308 -1.55689,-0.0048 -2.76414,-0.763413 z m 5.50827,-5.873576 c 0.8127,-2.317942 1.39582,-4.309978 1.29582,-4.426747 -0.2032,-0.237279 -4.19954,0.738811 -4.57917,1.118445 -0.20441,0.204407 0.56266,5.463097 1.05671,7.244364 0.28629,1.032204 0.80815,0.109695 2.22664,-3.936062 z m -4.5198,3.392331 c 5.8e-4,-0.210456 -0.73827,-4.552836 -0.94455,-5.551438 -0.0671,-0.324775 -0.47154,-0.771259 -0.89876,-0.992187 -1.00943,-0.521997 -1.33333,-0.50703 -1.32736,0.06133 0.009,0.815624 1.8421,6.249253 2.18149,6.464815 0.41773,0.265323 0.98848,0.275407 0.98918,0.01748 z"
       style="fill:#c7c7c7;stroke-width:0.26458332" />
    <path
       id="path899"
       d="m 129.64205,57.962184 c -0.51694,-0.516947 -0.37817,-2.179831 0.24839,-2.976373 0.48237,-0.613242 0.55843,-1.028215 0.51544,-2.812109 -0.0457,-1.897863 0.009,-2.152478 0.59152,-2.734669 1.06763,-1.067628 4.20479,-1.288706 4.78276,-0.337043 0.23664,0.389646 0.17412,0.575736 -0.33336,0.992188 -0.34354,0.281924 -0.95888,0.51259 -1.36742,0.51259 -1.39103,0 -1.57983,0.208264 -1.57983,1.742722 0,1.391116 0.0225,1.433026 1.0541,1.959285 0.66276,0.338111 1.11538,0.781922 1.21916,1.195411 0.35443,1.41217 -0.59776,2.140634 -1.58535,1.212846 -0.50318,-0.472713 -0.72908,-0.525262 -1.30945,-0.304605 -0.40511,0.15402 -0.70137,0.470599 -0.70137,0.749459 0,0.538183 -0.48019,1.117798 -0.92605,1.117798 -0.16007,0 -0.43391,-0.142875 -0.60854,-0.3175 z"
       style="fill:#3d3d3d;stroke-width:0.26458332;stroke:#c7c7c7;stroke-opacity:1" />
    <g
       transform="translate(4.1426777,8.9201205)"
       id="g970">
      <path
         id="path961"
         d="m 133.10694,35.589606 c -0.21828,-0.132947 -0.79384,-0.389211 -1.27903,-0.569476 -1.10404,-0.410195 -1.3668,-1.085105 -1.3668,-3.510759 0,-2.140156 0.31348,-2.80601 1.63035,-3.462949 0.97696,-0.487372 1.69127,-0.520987 2.80687,-0.132086 1.19642,0.417075 1.31225,1.041291 0.34382,1.852864 -0.44676,0.3744 -0.81229,0.894994 -0.81229,1.156876 0,0.382919 0.0741,0.414658 0.37841,0.162097 0.51773,-0.429674 2.28594,-0.243761 2.61032,0.274453 0.72205,1.153534 -0.76884,2.718725 -2.3092,2.424268 -0.64649,-0.123585 -0.73874,-0.07498 -0.59056,0.311177 0.0966,0.251702 0.17561,0.507434 0.17561,0.568292 0,0.234442 1.38577,0.09588 1.93563,-0.19354 0.73394,-0.386315 0.91029,-0.652868 1.25425,-1.895734 0.36886,-1.332862 0.89019,-1.119983 0.99058,0.404496 0.0638,0.969218 -0.048,1.354037 -0.56972,1.960569 -0.59866,0.695978 -0.81055,0.759962 -2.72524,0.822915 -1.14187,0.03754 -2.25472,-0.04051 -2.473,-0.173463 z"
         style="fill:#c7c7c7;fill-opacity:1;stroke-width:0.26458335" />
      <path
         id="path959"
         d="m 133.60077,35.596208 c 0.25665,-0.162596 -0.0298,-0.358999 -0.98728,-0.677039 -1.22452,-0.406719 -1.37514,-0.545783 -1.63454,-1.509128 -0.1628,-0.604595 -0.20836,-1.68037 -0.1059,-2.500449 0.1533,-1.226984 0.32073,-1.555459 1.13486,-2.226534 1.07164,-0.883338 1.11052,-0.891287 2.4881,-0.508714 1.20632,0.335014 1.23732,0.607736 0.17102,1.504964 l -0.82116,0.690964 0.18644,2.268517 c 0.10254,1.247685 0.30805,2.417346 0.45668,2.599247 0.6351,0.777235 2.62704,-0.05269 3.4421,-1.434129 0.60413,-1.023914 0.84198,-1.013992 0.58139,0.02425 -0.097,0.386696 -0.56057,0.996058 -1.03003,1.354137 -0.70346,0.536549 -1.15166,0.650342 -2.5484,0.647003 -1.05797,-0.0025 -1.55897,-0.09011 -1.33328,-0.233089 z m 1.37171,-2.524781 c -0.40937,-0.493258 -0.17397,-1.617785 0.38344,-1.831681 0.50266,-0.192892 1.71977,0.251278 1.71977,0.627613 0,0.191874 -0.15613,0.196882 -0.49437,0.01586 -0.53471,-0.286164 -0.82854,-0.13638 -0.82854,0.422356 0,0.194028 0.18851,0.352778 0.41892,0.352778 0.59638,0 0.3082,0.645558 -0.33051,0.740372 -0.29238,0.0434 -0.6833,-0.10388 -0.86871,-0.327294 z"
         style="fill:#3c3c3c;fill-opacity:1;stroke-width:0.26458335" />
      <ellipse
         style="opacity:1;fill:#3feaf5;fill-opacity:1;stroke:none;stroke-width:0.26458332;stroke-linecap:butt;stroke-linejoin:bevel;stroke-miterlimit:4;stroke-dasharray:none;stroke-dashoffset:0;stroke-opacity:1;paint-order:normal"
         id="path965"
         cx="136.00677"
         cy="32.286236"
         rx="0.86862594"
         ry="0.85192162" />
    </g>
  </g>
</svg>
